<svg width="483" height="483" viewBox="0 0 483 483" fill="none" xmlns="http://www.w3.org/2000/svg">
<mask id="mask0_6_680" style="mask-type:alpha" maskUnits="userSpaceOnUse" x="0" y="0" width="483" height="483">
<path d="M483 0H0V483H483V0Z" fill="white"/>
</mask>
<g mask="url(#mask0_6_680)">
<path d="M241.5 483C355.823 483 448.5 390.323 448.5 276C448.5 161.677 355.823 69 241.5 69C127.177 69 34.5 161.677 34.5 276C34.5 390.323 127.177 483 241.5 483Z" fill="#BFA893"/>
<mask id="mask1_6_680" style="mask-type:luminance" maskUnits="userSpaceOnUse" x="13" y="0" width="457" height="483">
<path d="M469.2 0H13.8V276H34.5C34.5 390.316 127.184 483 241.5 483C355.816 483 448.5 390.316 448.5 276H469.2V0Z" fill="white"/>
</mask>
<g mask="url(#mask1_6_680)">
<path d="M241.5 62.1C215.88 62.1 191.31 72.2775 173.193 90.3935C155.077 108.51 144.9 133.08 144.9 158.7V169.343C140.077 170.158 135.699 172.655 132.541 176.391C129.384 180.126 127.651 184.859 127.65 189.75V213.9C127.65 218.882 129.446 223.697 132.71 227.462C135.974 231.226 140.486 233.687 145.418 234.393C147.16 250.861 153.104 266.605 162.679 280.116C172.254 293.627 185.14 304.452 200.1 311.552V343.292H193.2C160.26 343.292 128.669 356.378 105.377 379.67C82.0853 402.962 69 434.552 69 467.492V483.017H414V467.492C414 434.552 400.915 402.962 377.623 379.67C354.331 356.378 322.74 343.292 289.8 343.292H282.9V311.569C297.86 304.469 310.746 293.644 320.321 280.133C329.896 266.622 335.84 250.878 337.582 234.41C342.517 233.704 347.032 231.241 350.296 227.473C353.56 223.705 355.355 218.885 355.35 213.9V189.75C355.349 184.859 353.616 180.126 350.459 176.391C347.301 172.655 342.923 170.158 338.1 169.343V158.7C338.1 133.08 327.923 108.51 309.807 90.3935C291.69 72.2775 267.12 62.1 241.5 62.1Z" fill="#A66641"/>
<path d="M200.1 311.552V325.352C213.036 331.493 227.18 334.669 241.5 334.65C256.318 334.65 270.359 331.321 282.9 325.352V311.552C269.964 317.693 255.82 320.869 241.5 320.85C227.18 320.869 213.036 317.693 200.1 311.552Z" fill="black" fill-opacity="0.1"/>
<path d="M242.363 382.657C274.275 382.657 300.15 366.062 300.15 345.604C300.15 344.983 300.133 344.396 300.081 343.775C331.133 346.355 360.082 360.512 381.184 383.438C402.285 406.364 413.999 436.385 414 467.544V483H69V467.561C68.9998 436.099 80.9399 405.81 102.408 382.811C123.877 359.812 153.274 345.818 184.661 343.655C184.61 344.293 184.575 344.948 184.575 345.604C184.575 366.062 210.45 382.657 242.363 382.657Z" fill="#A63C24"/>
<path d="M242.362 394.611C280.123 394.611 310.724 373.825 310.724 348.191C310.724 347.156 310.69 346.121 310.586 345.086C307.136 344.517 303.634 344.069 300.064 343.775C300.133 344.379 300.15 344.983 300.15 345.604C300.15 366.062 274.275 382.657 242.362 382.657C210.45 382.657 184.575 366.045 184.575 345.604C184.575 344.948 184.609 344.293 184.661 343.655C181.108 343.896 177.623 344.276 174.173 344.81C174.052 345.932 174.001 347.053 174.001 348.191C174.001 373.825 204.602 394.611 242.362 394.611Z" fill="black" fill-opacity="0.08"/>
<path fill-rule="evenodd" clip-rule="evenodd" d="M220.8 224.25C220.8 231.875 230.063 238.05 241.5 238.05C252.937 238.05 262.2 231.875 262.2 224.25" fill="black" fill-opacity="0.16"/>
<path d="M335.857 96.807C337.41 102.413 339.601 117.421 335.754 122.406C334.46 124.062 325.68 119.405 322.006 117.369L315.916 113.988C290.179 99.636 281.865 95.013 236.739 95.6685C188.249 96.3585 155.026 119.094 153.146 121.423C151.852 123.027 150.196 127.357 148.833 139.38C148.402 143.175 148.281 147.953 148.143 152.68C147.901 162.926 147.625 172.983 144.262 172.966C140.053 172.949 139.139 131.945 140.95 115.679C141.019 115.058 141.122 114.333 141.26 113.557C141.657 111.142 142.123 108.158 141.536 106.467C141.26 105.708 140.605 105.26 139.915 104.759C138.845 104.018 137.741 103.241 138.052 101.258C138.414 98.9978 139.949 98.7908 141.45 98.5665C142.433 98.4285 143.399 98.2905 144.038 97.6005C145.987 95.4788 144.831 94.3748 143.503 93.1155C142.709 92.3738 141.864 91.563 141.571 90.4763C140.484 86.4053 143.348 85.1288 146.211 83.8695L146.867 83.5763C148.057 83.0588 148.764 82.8518 149.316 82.7138C150.351 82.455 150.782 82.3515 152.576 80.385C148.885 77.694 147.574 74.0198 152.594 72.0533C153.56 71.6738 155.216 71.7083 156.906 71.7083C158.976 71.7428 161.046 71.76 161.978 71.07C162.236 70.8803 162.392 70.1558 162.547 69.5175C162.65 69.0518 162.737 68.655 162.857 68.4825C165.186 65.1533 164.979 62.6175 164.72 59.1675L164.599 57.5805C164.375 54.0615 164.41 50.853 168.619 50.4908C170.344 50.3528 171.896 51.1808 173.397 51.9743C174.328 52.4745 175.26 52.9748 176.226 53.2335C177.727 53.6303 178.124 53.9753 178.503 53.9753C178.831 53.9753 179.141 53.7165 180.159 53.0265C182.195 51.612 182.402 49.4903 182.626 47.334C182.816 45.471 183.005 43.5735 184.42 42.159C187.145 39.399 189.25 41.055 191.32 42.6765C192.424 43.539 193.528 44.4015 194.701 44.574C199.1 45.195 199.979 42.7455 200.945 40.1063C201.566 38.3813 202.222 36.5528 203.947 35.4833C207.104 33.4995 208.501 35.397 209.864 37.2255C210.726 38.3985 211.554 39.5198 212.796 39.6233C214.538 39.7613 217.143 37.7258 219.437 35.9318C220.55 34.9733 221.765 34.1403 223.06 33.4478C226.975 31.8435 229.804 33.5685 232.685 35.3108C235.1 36.777 237.567 38.2778 240.706 37.7775L242.138 37.5533C246.002 36.915 247.503 36.6735 251.54 39.2093C252.445 39.9012 253.502 40.3696 254.623 40.5764C255.744 40.7833 256.898 40.7226 257.991 40.3995C259.026 40.1925 260.234 39.9683 261.89 39.951C263.787 39.951 265.305 40.8135 266.771 41.6588C267.979 42.3488 269.117 43.0215 270.445 43.1595C271.17 43.2285 271.894 42.8835 272.619 42.5385C273.343 42.1935 274.068 41.8485 274.861 41.883C278.018 42.0728 279.502 44.4705 280.985 46.851C282.141 48.714 283.297 50.5598 285.229 51.4395C288.023 52.6815 291.163 51.8535 294.147 51.0773C295.51 50.7323 296.821 50.3873 298.08 50.2148C304.911 49.4213 303.721 53.613 302.479 58.0808C301.854 59.8929 301.505 61.7885 301.444 63.7043C303.427 64.17 305.411 63.4455 307.412 62.721C309.31 62.031 311.173 61.341 313.053 61.686C318.918 62.6865 316.934 68.6205 315.537 72.8123L315.399 73.1745C316.503 73.1745 318.055 72.8295 319.815 72.45C324.748 71.415 331.217 70.0178 333.235 74.3993C334.046 76.2105 333.236 78.384 332.477 80.5058C331.886 81.8197 331.53 83.2266 331.424 84.663C331.459 87.3023 332.632 89.6655 333.839 92.0288C334.615 93.5985 335.392 95.1683 335.857 96.8243V96.807Z" fill="#2C1B18"/>
<path d="M333.546 126.96L334.357 127.529C337.393 129.237 339.79 146.332 339.911 152.869C339.98 156.906 340.049 172.276 335.771 170.947C334.477 170.551 332.494 162.409 332.218 157.63C331.942 152.869 329.216 136.654 325.076 129.185C324.852 128.788 324.524 128.305 324.162 127.805C323.041 126.149 321.678 124.148 322.575 123.044C323.817 121.526 325.042 122.061 326.473 122.699L327.232 123.01C328.733 123.613 332.011 125.908 333.546 126.977V126.96Z" fill="#2C1B18"/>
<path fill-rule="evenodd" clip-rule="evenodd" d="M244.087 286.074C224.25 286.729 215.383 296.217 208.725 286.574C203.705 279.329 205.793 267.151 210.467 260.302C217.126 250.556 226.165 255.265 236.256 254.161C239.016 253.851 241.776 253.092 244.087 251.85C246.433 253.092 249.176 253.851 251.936 254.161C262.028 255.265 271.066 250.556 277.708 260.302C282.4 267.151 284.487 279.329 279.484 286.574C272.809 296.234 263.96 285.418 244.087 286.074ZM340.515 169.05C334.598 193.321 331.89 218.092 327.577 242.656C326.715 247.779 325.732 252.885 324.68 257.974C324.473 259.043 324.248 263.011 323.196 263.511C320.005 265.046 313.502 256.939 311.759 255.11C307.395 250.504 303.048 245.864 297.735 242.259C286.886 234.96 274.325 230.609 261.286 229.632C255.8 229.201 248.4 229.942 243.225 233.082C238.05 229.942 230.632 229.201 225.164 229.632C212.054 230.667 199.462 234.979 188.715 242.259C183.385 245.864 179.055 250.504 174.691 255.11C172.966 256.939 166.445 265.046 163.254 263.511C162.202 263.011 161.977 259.026 161.77 257.974C160.735 252.885 159.752 247.779 158.838 242.656C154.577 218.092 151.852 193.321 145.952 169.05C144.227 169.05 142.726 201.394 142.537 204.412C141.743 216.643 140.846 228.614 142.019 240.862C144.02 261.976 146.107 288.472 162.202 304.618C176.761 319.194 197.875 322.247 216.091 331.441C218.437 332.632 221.542 334.098 224.888 335.288C228.442 337.979 235.445 339.825 243.518 339.825C251.988 339.825 259.302 337.807 262.631 334.891C265.564 333.77 268.272 332.494 270.359 331.441C288.575 322.247 309.689 319.194 324.248 304.618C340.343 288.472 342.43 261.976 344.431 240.862C345.604 228.614 344.707 216.643 343.913 204.395C343.741 201.394 342.223 169.033 340.498 169.033L340.515 169.05Z" fill="#2C1B18"/>
<path fill-rule="evenodd" clip-rule="evenodd" d="M311.837 165.058C319.893 165.334 325.637 166.576 330.036 172.855C335.228 173.113 340.817 173.493 345.526 175.666C351.374 178.357 352.254 184.464 344.905 185.309C341.697 185.654 338.488 185.102 335.332 184.533L335.004 184.481L334.435 184.378C336.332 200.696 323.722 220.378 309.888 226.381C290.947 234.592 269.799 225.502 259.777 209.062C255.257 201.645 252.635 190.933 252.083 181.704C251.359 181.359 250.651 180.945 249.961 180.548C249.306 180.169 248.65 179.789 248.029 179.496C244.579 177.805 238.818 177.598 235.092 179.496C234.488 179.789 233.884 180.134 233.281 180.496C232.556 180.928 231.797 181.359 231.038 181.738C230.452 190.95 227.83 201.645 223.327 209.062C213.322 225.502 192.157 234.592 173.216 226.381C159.382 220.378 146.772 200.696 148.669 184.378L148.1 184.481L147.755 184.533C144.598 185.102 141.373 185.671 138.181 185.309C130.816 184.447 131.73 178.357 137.56 175.649C142.252 173.493 147.841 173.113 153.034 172.855C157.432 166.593 163.177 165.334 171.232 165.058L211.408 164.264C220.36 164.023 228.175 164.264 230.434 172.199C233.933 170.849 237.639 170.12 241.388 170.043C244.597 170.043 248.892 170.819 252.601 172.251C254.843 164.247 262.657 164.023 271.627 164.264L311.82 165.058H311.837ZM270.385 176.753C266.297 176.805 264.348 177.478 263.658 181.756C262.968 186.068 263.658 190.915 264.451 195.176C265.711 201.679 267.763 208.045 272.576 212.806C276.519 216.659 281.512 219.263 286.928 220.292C287.118 220.344 287.86 220.465 288.584 220.568C289.671 220.741 290.706 220.879 289.809 220.792C296.243 221.482 303.126 221.31 308.473 217.256C314.563 212.599 318.737 205.267 320.566 197.936C321.652 193.658 323.895 183.412 319.772 179.996C315.063 176.063 270.385 176.753 270.385 176.753ZM212.719 176.753C216.807 176.805 218.756 177.478 219.446 181.756C220.136 186.068 219.446 190.933 218.653 195.176C217.393 201.679 215.341 208.045 210.528 212.806C206.178 217.065 200.558 219.79 194.52 220.568C193.416 220.741 192.346 220.896 193.347 220.792C186.913 221.482 179.995 221.344 174.631 217.256C168.541 212.616 164.367 205.267 162.538 197.936C161.452 193.658 159.209 183.412 163.332 179.996C168.041 176.063 212.719 176.77 212.719 176.77V176.753Z" fill="black" fill-opacity="0.1"/>
<path fill-rule="evenodd" clip-rule="evenodd" d="M214.03 171.595C218.359 171.63 220.412 172.372 221.154 176.96C221.896 181.618 221.154 186.862 220.291 191.45C218.998 198.454 216.807 205.319 211.701 210.425C207.553 214.565 202.27 217.381 196.521 218.515C195.952 218.636 191.087 219.326 194.071 218.981C187.102 219.792 179.53 219.757 173.716 215.238C167.265 210.235 162.849 202.3 160.9 194.417C159.761 189.829 157.381 178.789 161.745 175.097C166.747 170.854 214.012 171.595 214.012 171.595H214.03Z" fill="white" fill-opacity="0.5"/>
<path style="mix-blend-mode:screen" fill-rule="evenodd" clip-rule="evenodd" d="M214.03 171.595C218.359 171.63 220.412 172.372 221.154 176.96C221.896 181.618 221.154 186.862 220.291 191.45C218.998 198.454 216.807 205.319 211.701 210.425C207.553 214.565 202.27 217.381 196.521 218.515C195.952 218.636 191.087 219.326 194.071 218.981C187.102 219.792 179.53 219.757 173.716 215.238C167.265 210.235 162.849 202.3 160.9 194.417C159.761 189.829 157.381 178.789 161.745 175.097C166.747 170.854 214.012 171.595 214.012 171.595H214.03Z" fill="url(#paint0_linear_6_680)"/>
<path fill-rule="evenodd" clip-rule="evenodd" d="M269.074 171.578C264.745 171.63 262.692 172.354 261.95 176.96C261.208 181.618 261.95 186.844 262.813 191.45C264.106 198.454 266.297 205.302 271.403 210.425C275.551 214.564 280.834 217.38 286.583 218.515C287.152 218.636 292.017 219.326 289.033 218.964C296.002 219.775 303.574 219.74 309.388 215.238C315.839 210.235 320.255 202.3 322.204 194.417C323.343 189.811 325.723 178.771 321.359 175.097C316.357 170.854 269.074 171.595 269.074 171.595V171.578Z" fill="white" fill-opacity="0.5"/>
<path style="mix-blend-mode:screen" fill-rule="evenodd" clip-rule="evenodd" d="M269.074 171.578C264.745 171.63 262.692 172.354 261.95 176.96C261.208 181.618 261.95 186.844 262.813 191.45C264.106 198.454 266.297 205.302 271.403 210.425C275.551 214.564 280.834 217.38 286.583 218.515C287.152 218.636 292.017 219.326 289.033 218.964C296.002 219.775 303.574 219.74 309.388 215.238C315.839 210.235 320.255 202.3 322.204 194.417C323.343 189.811 325.723 178.771 321.359 175.097C316.357 170.854 269.074 171.595 269.074 171.595V171.578Z" fill="url(#paint1_linear_6_680)"/>
<path fill-rule="evenodd" clip-rule="evenodd" d="M311.837 161.608C319.893 161.884 325.637 163.126 330.036 169.405C335.228 169.663 340.817 170.043 345.526 172.216C351.374 174.907 352.254 181.014 344.905 181.859C341.697 182.204 338.488 181.652 335.332 181.083L335.004 181.031L334.435 180.928C336.332 197.246 323.722 216.928 309.888 222.931C290.947 231.142 269.799 222.052 259.777 205.612C255.257 198.195 252.635 187.483 252.083 178.254C251.359 177.909 250.651 177.495 249.961 177.098C249.306 176.719 248.65 176.339 248.029 176.046C244.579 174.355 238.818 174.148 235.092 176.046C234.488 176.339 233.884 176.684 233.281 177.046C232.556 177.478 231.797 177.909 231.038 178.288C230.452 187.5 227.83 198.195 223.327 205.612C213.322 222.052 192.157 231.142 173.216 222.931C159.382 216.928 146.772 197.246 148.669 180.928C148.48 180.928 148.29 180.979 148.1 181.014L147.755 181.066C144.598 181.635 141.373 182.204 138.181 181.842C130.816 180.979 131.73 174.89 137.56 172.182C142.252 170.026 147.841 169.646 153.034 169.387C157.432 163.126 163.177 161.866 171.232 161.59L211.408 160.797C220.36 160.555 228.175 160.797 230.434 168.732C233.933 167.382 237.639 166.652 241.388 166.576C244.597 166.576 248.892 167.352 252.601 168.784C254.843 160.78 262.657 160.555 271.627 160.797L311.82 161.59L311.837 161.608ZM270.385 173.303C266.297 173.355 264.348 174.028 263.658 178.306C262.968 182.618 263.658 187.465 264.451 191.726C265.711 198.229 267.763 204.595 272.576 209.356C276.519 213.209 281.512 215.813 286.928 216.842C287.118 216.894 287.86 217.015 288.584 217.118C289.671 217.291 290.706 217.429 289.809 217.342C296.243 218.032 303.126 217.86 308.473 213.806C314.563 209.149 318.737 201.817 320.566 194.486C321.652 190.208 323.895 179.962 319.772 176.546C315.063 172.613 270.385 173.303 270.385 173.303ZM212.719 173.303C216.807 173.355 218.756 174.028 219.446 178.306C220.136 182.618 219.446 187.483 218.653 191.726C217.393 198.229 215.341 204.595 210.528 209.356C206.178 213.615 200.558 216.34 194.52 217.118C193.416 217.291 192.346 217.446 193.347 217.342C186.913 218.032 179.995 217.894 174.631 213.806C168.541 209.166 164.367 201.817 162.538 194.486C161.452 190.208 159.209 179.962 163.332 176.546C168.041 172.613 212.719 173.32 212.719 173.32V173.303Z" fill="black"/>
</g>
</g>
<defs>
<linearGradient id="paint0_linear_6_680" x1="168.403" y1="171.544" x2="168.403" y2="205.267" gradientUnits="userSpaceOnUse">
<stop stop-color="white" stop-opacity="0.5"/>
<stop offset="1" stop-opacity="0.5"/>
</linearGradient>
<linearGradient id="paint1_linear_6_680" x1="261.64" y1="171.544" x2="261.64" y2="219.378" gradientUnits="userSpaceOnUse">
<stop stop-color="white" stop-opacity="0.5"/>
<stop offset="0.71" stop-opacity="0.5"/>
</linearGradient>
</defs>
</svg>
